<svg width="32" height="33" viewBox="0 0 32 33" fill="none" xmlns="http://www.w3.org/2000/svg">
<g id="lets-icons:insta">
<g id="Group">
<path id="Vector" d="M4 15.125C4 9.93988 4 7.34662 5.56267 5.7365C7.124 4.125 9.63867 4.125 14.6667 4.125H17.3333C22.3613 4.125 24.876 4.125 26.4373 5.7365C28 7.34662 28 9.93988 28 15.125V17.875C28 23.0601 28 25.6534 26.4373 27.2635C24.876 28.875 22.3613 28.875 17.3333 28.875H14.6667C9.63867 28.875 7.124 28.875 5.56267 27.2635C4 25.6534 4 23.0601 4 17.875V15.125Z" stroke="url(#paint0_linear_1146_1230)" stroke-width="2"/>
<path id="Vector_2" d="M22 12.375C23.1046 12.375 24 11.4516 24 10.3125C24 9.17341 23.1046 8.25 22 8.25C20.8954 8.25 20 9.17341 20 10.3125C20 11.4516 20.8954 12.375 22 12.375Z" fill="url(#paint1_linear_1146_1230)"/>
<path id="Vector_3" d="M16 20.625C18.2091 20.625 20 18.7782 20 16.5C20 14.2218 18.2091 12.375 16 12.375C13.7909 12.375 12 14.2218 12 16.5C12 18.7782 13.7909 20.625 16 20.625Z" stroke="url(#paint2_linear_1146_1230)" stroke-width="2"/>
</g>
</g>
<defs>
<linearGradient id="paint0_linear_1146_1230" x1="21.65" y1="4.125" x2="11.8211" y2="30.1363" gradientUnits="userSpaceOnUse">
<stop stop-color="#04164F"/>
<stop offset="0.625" stop-color="#3D1069"/>
<stop offset="1" stop-color="#750B83"/>
</linearGradient>
<linearGradient id="paint1_linear_1146_1230" x1="22.9417" y1="8.25" x2="21.3035" y2="12.5852" gradientUnits="userSpaceOnUse">
<stop stop-color="#04164F"/>
<stop offset="0.625" stop-color="#3D1069"/>
<stop offset="1" stop-color="#750B83"/>
</linearGradient>
<linearGradient id="paint2_linear_1146_1230" x1="17.8833" y1="12.375" x2="14.607" y2="21.0454" gradientUnits="userSpaceOnUse">
<stop stop-color="#04164F"/>
<stop offset="0.625" stop-color="#3D1069"/>
<stop offset="1" stop-color="#750B83"/>
</linearGradient>
</defs>
</svg>
