<svg width="17" height="17" viewBox="0 0 17 17" fill="none" xmlns="http://www.w3.org/2000/svg">
<path d="M8.1741 0C12.6887 0 16.3482 3.65954 16.3482 8.1741C16.3482 12.6887 12.6887 16.3482 8.1741 16.3482C3.65954 16.3482 0 12.6887 0 8.1741C0 3.65954 3.65954 0 8.1741 0ZM8.1741 1.63482C6.43977 1.63482 4.77648 2.32378 3.55013 3.55013C2.32378 4.77648 1.63482 6.43977 1.63482 8.1741C1.63482 9.90843 2.32378 11.5717 3.55013 12.7981C4.77648 14.0244 6.43977 14.7134 8.1741 14.7134C9.90843 14.7134 11.5717 14.0244 12.7981 12.7981C14.0244 11.5717 14.7134 9.90843 14.7134 8.1741C14.7134 6.43977 14.0244 4.77648 12.7981 3.55013C11.5717 2.32378 9.90843 1.63482 8.1741 1.63482ZM8.1741 3.26964C8.37431 3.26967 8.56755 3.34317 8.71716 3.47621C8.86678 3.60925 8.96236 3.79258 8.98579 3.99141L8.99151 4.08705V7.83569L11.2042 10.0484C11.3508 10.1955 11.436 10.3929 11.4423 10.6005C11.4486 10.8081 11.3757 11.0103 11.2384 11.166C11.101 11.3218 10.9095 11.4195 10.7028 11.4392C10.496 11.4589 10.2895 11.3991 10.1253 11.2721L10.0484 11.2042L7.59619 8.75201C7.46915 8.62486 7.38756 8.45938 7.36405 8.28118L7.35669 8.1741V4.08705C7.35669 3.87026 7.44281 3.66235 7.5961 3.50905C7.7494 3.35576 7.95731 3.26964 8.1741 3.26964Z" fill="#FAFAFA"/>
</svg>
