<svg width="16" height="18" viewBox="0 0 16 18" fill="none" xmlns="http://www.w3.org/2000/svg">
<path fill-rule="evenodd" clip-rule="evenodd" d="M8 0C10.1217 0 12.1566 0.842855 13.6569 2.34315C15.1571 3.84344 16 5.87827 16 8C16 10.7324 14.5102 12.9689 12.9404 14.5733C12.1562 15.3663 11.3004 16.0852 10.384 16.7209L10.0053 16.9787L9.82756 17.0969L9.49244 17.3102L9.19378 17.4924L8.824 17.7076C8.57301 17.8508 8.289 17.9262 8 17.9262C7.711 17.9262 7.42699 17.8508 7.176 17.7076L6.80622 17.4924L6.344 17.208L6.17333 17.0969L5.80889 16.8542C4.82029 16.1854 3.89947 15.4214 3.05956 14.5733C1.48978 12.968 0 10.7324 0 8C0 5.87827 0.842855 3.84344 2.34315 2.34315C3.84344 0.842855 5.87827 0 8 0ZM8 1.77778C6.34976 1.77778 4.76712 2.43333 3.60022 3.60022C2.43333 4.76712 1.77778 6.34976 1.77778 8C1.77778 10.064 2.90844 11.8756 4.32978 13.3298C4.94092 13.9484 5.60147 14.5162 6.30489 15.0276L6.712 15.3173C6.84356 15.4092 6.97007 15.4945 7.09156 15.5733L7.43822 15.7956L7.74311 15.9813L8 16.1316L8.40444 15.8924L8.73067 15.688C8.9043 15.5778 9.09007 15.4542 9.288 15.3173L9.69511 15.0276C10.3985 14.5162 11.0591 13.9484 11.6702 13.3298C13.0916 11.8764 14.2222 10.064 14.2222 8C14.2222 6.34976 13.5667 4.76712 12.3998 3.60022C11.2329 2.43333 9.65024 1.77778 8 1.77778ZM8 4.44444C8.94299 4.44444 9.84736 4.81905 10.5142 5.48584C11.181 6.15264 11.5556 7.05701 11.5556 8C11.5556 8.94299 11.181 9.84736 10.5142 10.5142C9.84736 11.181 8.94299 11.5556 8 11.5556C7.05701 11.5556 6.15264 11.181 5.48584 10.5142C4.81905 9.84736 4.44444 8.94299 4.44444 8C4.44444 7.05701 4.81905 6.15264 5.48584 5.48584C6.15264 4.81905 7.05701 4.44444 8 4.44444ZM8 6.22222C7.5285 6.22222 7.07632 6.40952 6.74292 6.74292C6.40952 7.07632 6.22222 7.5285 6.22222 8C6.22222 8.4715 6.40952 8.92368 6.74292 9.25708C7.07632 9.59048 7.5285 9.77778 8 9.77778C8.4715 9.77778 8.92368 9.59048 9.25708 9.25708C9.59048 8.92368 9.77778 8.4715 9.77778 8C9.77778 7.5285 9.59048 7.07632 9.25708 6.74292C8.92368 6.40952 8.4715 6.22222 8 6.22222Z" fill="#FAFAFA"/>
</svg>
